{
    "asset" : {
        "generator" : "Khronos glTF Blender I/O v3.4.50",
        "version" : "2.0"
    },
    "scene" : 0,
    "scenes" : [
        {
            "name" : "Scene",
            "nodes" : [
                0
            ]
        }
    ],
    "nodes" : [
        {
            "mesh" : 0,
            "name" : "Plane",
            "rotation" : [
                0,
                0,
                0,
                1
            ],
            "scale" : [
                0.017,
                0.013,
                0.017
            ],
            "translation" : [
                0,
                0,
                -4
            ]
        }
    ],
    "materials" : [
        {
            "doubleSided" : true,
            "name" : "Material",
            "pbrMetallicRoughness" : {
                "baseColorFactor" : [
                    0.26993465423583984,
                    0.26993465423583984,
                    0.26993465423583984,
                    1
                ],
                "metallicFactor" : 0.25,
                "roughnessFactor" : 0.5
            }
        },
        {
            "doubleSided" : true,
            "name" : "Material.007",
            "pbrMetallicRoughness" : {
                "baseColorFactor" : [
                    0.0508754625916481,
                    0.0508754625916481,
                    0.0508754625916481,
                    1
                ],
                "metallicFactor" : 1,
                "roughnessFactor" : 0.5
            }
        },
        {
            "doubleSided" : true,
            "name" : "Material.001",
            "pbrMetallicRoughness" : {
                "baseColorFactor" : [
                    0.01002123299986124,
                    0.01002123299986124,
                    0.01002123299986124,
                    1
                ],
                "metallicFactor" : 0.5,
                "roughnessFactor" : 0
            }
        }
    ],
    "meshes" : [
        {
            "name" : "Cylinder",
            "primitives" : [
                {
                    "attributes" : {
                        "POSITION" : 0,
                        "NORMAL" : 1
                    },
                    "indices" : 2,
                    "material" : 0
                },
                {
                    "attributes" : {
                        "POSITION" : 3,
                        "NORMAL" : 4
                    },
                    "indices" : 5,
                    "material" : 1
                },
                {
                    "attributes" : {
                        "POSITION" : 6,
                        "NORMAL" : 7
                    },
                    "indices" : 8,
                    "material" : 2
                }
            ]
        }
    ],
    "accessors" : [
        {
            "bufferView" : 0,
            "componentType" : 5126,
            "count" : 4465,
            "max" : [
                144.8971710205078,
                7.098710060119629,
                31.294921875
            ],
            "min" : [
                -144.8971710205078,
                -473.5369873046875,
                -104.21987915039062
            ],
            "type" : "VEC3"
        },
        {
            "bufferView" : 1,
            "componentType" : 5126,
            "count" : 4465,
            "type" : "VEC3"
        },
        {
            "bufferView" : 2,
            "componentType" : 5123,
            "count" : 6999,
            "type" : "SCALAR"
        },
        {
            "bufferView" : 3,
            "componentType" : 5126,
            "count" : 160,
            "max" : [
                16.81071662902832,
                -441.0409240722656,
                9.356199264526367
            ],
            "min" : [
                -16.81071662902832,
                -461.0189208984375,
                -24.265235900878906
            ],
            "type" : "VEC3"
        },
        {
            "bufferView" : 4,
            "componentType" : 5126,
            "count" : 160,
            "type" : "VEC3"
        },
        {
            "bufferView" : 5,
            "componentType" : 5123,
            "count" : 282,
            "type" : "SCALAR"
        },
        {
            "bufferView" : 6,
            "componentType" : 5126,
            "count" : 148,
            "max" : [
                13.218487739562988,
                -93.10072326660156,
                -23.826339721679688
            ],
            "min" : [
                -13.218487739562988,
                -188.9165802001953,
                -44.00682830810547
            ],
            "type" : "VEC3"
        },
        {
            "bufferView" : 7,
            "componentType" : 5126,
            "count" : 148,
            "type" : "VEC3"
        },
        {
            "bufferView" : 8,
            "componentType" : 5123,
            "count" : 216,
            "type" : "SCALAR"
        }
    ],
    "bufferViews" : [
        {
            "buffer" : 0,
            "byteLength" : 53580,
            "byteOffset" : 0,
            "target" : 34962
        },
        {
            "buffer" : 0,
            "byteLength" : 53580,
            "byteOffset" : 53580,
            "target" : 34962
        },
        {
            "buffer" : 0,
            "byteLength" : 13998,
            "byteOffset" : 107160,
            "target" : 34963
        },
        {
            "buffer" : 0,
            "byteLength" : 1920,
            "byteOffset" : 121160,
            "target" : 34962
        },
        {
            "buffer" : 0,
            "byteLength" : 1920,
            "byteOffset" : 123080,
            "target" : 34962
        },
        {
            "buffer" : 0,
            "byteLength" : 564,
            "byteOffset" : 125000,
            "target" : 34963
        },
        {
            "buffer" : 0,
            "byteLength" : 1776,
            "byteOffset" : 125564,
            "target" : 34962
        },
        {
            "buffer" : 0,
            "byteLength" : 1776,
            "byteOffset" : 127340,
            "target" : 34962
        },
        {
            "buffer" : 0,
            "byteLength" : 432,
            "byteOffset" : 129116,
            "target" : 34963
        }
    ],
    "buffers" : [
        {
            "byteLength" : 129548,
            "uri" : "spacecraft.bin"
        }
    ]
}
